<svg width="24" height="24" viewBox="0 0 24 24" fill="none" xmlns="http://www.w3.org/2000/svg">
    <path fill-rule="evenodd" clip-rule="evenodd" d="M21 4.06V22C20.5878 21.6459 20.2621 21.3667 19.9938 21.1367C19.4745 20.6915 19.1698 20.4303 18.8681 20.1659C18.44 19.7907 18.0178 19.4089 16.9964 18.4853C16.7714 18.2818 16.5172 18.0519 16.2274 17.79L16.7726 19.64H5.10857C3.94629 19.64 3 18.72 3 17.58V4.06C3 2.92 3.94629 2 5.10857 2H18.8914C20.0537 2 21 2.92 21 4.06ZM9.08914 11.5C9.08914 10.89 9.552 10.39 10.1383 10.39C10.7246 10.39 11.1977 10.89 11.1874 11.5C11.1874 12.11 10.7246 12.61 10.1383 12.61C9.56229 12.61 9.08914 12.11 9.08914 11.5ZM13.8926 12.61C14.4789 12.61 14.9417 12.11 14.9417 11.5C14.9417 10.89 14.4789 10.39 13.8926 10.39C13.3063 10.39 12.8434 10.89 12.8434 11.5C12.8434 12.11 13.3166 12.61 13.8926 12.61ZM16.5874 7.71C16.5874 7.71 18.0686 10.32 18.0686 13.54C18.0686 13.54 17.1943 14.99 14.9211 15.06C14.9211 15.06 14.5509 14.63 14.2423 14.25C15.5897 13.88 16.104 13.06 16.104 13.06C15.6823 13.33 15.2811 13.52 14.9211 13.65C12.7051 14.5549 10.239 14.2452 8.50286 13.3C8.4978 13.2967 8.47933 13.2864 8.45209 13.2712C8.36687 13.2236 8.19581 13.128 8.08114 13.05C8.08114 13.05 8.57486 13.85 9.88114 14.23C9.57257 14.61 9.192 15.06 9.192 15.06C6.91886 14.99 6.05486 13.54 6.05486 13.54C6.05486 10.32 7.536 7.71 7.536 7.71C9.01714 6.63 10.4263 6.66 10.4263 6.66L10.5291 6.78C8.67771 7.3 7.824 8.09 7.824 8.09C7.824 8.09 8.05029 7.97 8.43086 7.8C10.8009 6.78785 13.671 6.78809 16.1143 8.09C16.1143 8.09 15.3017 7.34 13.5531 6.82L13.6971 6.66C13.6971 6.66 15.1063 6.63 16.5874 7.71Z" fill="white"/>
</svg>
